<svg version="1.1" preserveAspectRatio="none" xmlns="http://www.w3.org/2000/svg" width="500" height="500" viewBox="0 0 500 500"><rect width="100%" height="100%" fill="#F7F4F2" fill-opacity="1"/><svg viewBox="4.7442 36.0492 363.9148 237.009" width="333" height="216.8749306156276" x="83.5px" y="141.5625px" xmlns="http://www.w3.org/2000/svg" xmlns:xlink="http://www.w3.org/1999/xlink" preserveAspectRatio="none"><defs></defs><style>.companyName {fill:#161616;fill-opacity:1;}.icon1 {fill:#161616;fill-opacity:1;}.icon2 {fill:#E5B7D2;fill-opacity:1;}.icon3 {fill:#848282;fill-opacity:1;}.icon3-str {stroke:#848282;stroke-opacity:1;}</style><g opacity="1" transform="rotate(0 4.7442 203.0582)">
<svg width="363.9148" height="70" x="4.7442" y="203.0582" version="1.1" preserveAspectRatio="none" viewBox="6.2305 -29.3164 214.55069999999998 41.2695">
  <g transform="matrix(1 0 0 1 0 0)" class="companyName"><path id="id-D6z1nYkh15" d="M12.05-20.96L12.05-20.96Q11.41-20.49 11.41-19.91Q11.41-19.34 12.27-19.34L12.27-19.34Q12.64-19.34 13.22-19.55L13.22-19.55L13.24-19.55Q13.34-19.55 13.34-19.15Q13.34-18.75 13.26-18.67L13.26-18.67Q11.25-17.25 9.86-17.25Q8.48-17.25 7.85-18.03Q7.23-18.81 7.23-20.07Q7.23-21.33 8.61-22.74Q10-24.16 12.34-25.36Q14.69-26.56 18.15-27.34Q21.62-28.13 25.95-28.13Q30.27-28.13 33.18-26.44Q36.09-24.75 36.09-22.59Q36.09-20.43 34.58-18.20Q33.07-15.98 30.79-14.33Q28.52-12.68 25.74-11.62Q22.97-10.57 20.78-10.57Q18.59-10.57 17.38-12.32L17.38-12.32Q14.41-7.66 13.36-5.95Q12.30-4.24 11.57-3.08Q10.84-1.91 10.44-1.25Q10.04-0.59 10.02-0.57L10.02-0.57Q9.61-0.12 9.14-0.12L9.14-0.12L8.18 0.06L7.71 0.02L7.38 0.02Q6.23 0.02 6.23-0.70L6.23-0.70Q6.23-1.62 10.08-7.62Q13.93-13.61 17.33-18.50Q20.74-23.38 21.31-23.98Q21.88-24.59 22.31-24.70Q22.75-24.80 23.73-24.80L23.73-24.80L24.71-24.80Q24.96-24.80 24.96-24.40Q24.96-24.00 24.86-23.85L24.86-23.85Q23.14-21.45 18.65-14.36L18.65-14.36Q18.81-14.04 19.17-13.96Q19.53-13.89 19.94-13.89L19.94-13.89L20.51-13.89Q22.30-13.89 24.39-14.76Q26.48-15.63 28.07-16.84Q29.65-18.05 30.71-19.37Q31.78-20.68 31.78-21.62Q31.78-22.56 31.19-23.30Q30.61-24.04 29.59-24.47L29.59-24.47Q27.60-25.31 24.76-25.31Q21.91-25.31 17.90-23.84Q13.89-22.36 12.05-20.96Z M37.29-11.88L36.46-10.64Q41.07-15.88 44.32-15.88L44.32-15.88Q45.12-15.88 45.63-15.40Q46.15-14.92 46.15-14.16Q46.15-13.40 45.07-11.61Q43.98-9.82 43.07-8.59L43.07-8.59Q42.58-7.97 41.96-7.97Q41.35-7.97 41.01-8.42Q40.66-8.87 40.66-9.47L40.66-9.47Q40.66-10.82 42.11-12.52L42.11-12.52L42.07-12.56Q41.43-12.50 38.88-10.02Q36.33-7.54 34.54-5.58Q32.75-3.61 30.66-0.80L30.66-0.80Q30.06 0.04 29.64 0.04Q29.22 0.04 28.53-0.22Q27.83-0.49 27.69-0.61Q27.54-0.72 27.54-1.00Q27.54-1.27 27.70-1.63Q27.85-1.99 28.27-2.66Q28.69-3.32 29.54-4.80Q30.39-6.29 32.19-9.30Q33.98-12.30 34.34-12.93L34.34-12.93Q35.08-14.22 35.55-14.80L35.55-14.80Q36.43-15.92 38.52-15.92L38.52-15.92Q38.98-15.92 38.98-15.33L38.98-15.33Q38.98-14.41 37.29-11.88L37.29-11.88Z M56.76-21.45L56.76-21.45Q56.76-20.33 55.72-19.21Q54.69-18.09 53.56-18.09Q52.44-18.09 52.44-19.26Q52.44-20.43 53.43-21.49Q54.41-22.56 55.61-22.56L55.61-22.56Q56.13-22.56 56.45-22.27Q56.76-21.97 56.76-21.45ZM53.59-4.39L53.59-4.39Q53.59-3.81 53.48-3.55L53.48-3.55Q52.52-1.60 50.43-0.40Q48.34 0.80 46.80 0.80Q45.25 0.80 44.14-0.23Q43.03-1.27 43.03-2.34Q43.03-3.42 44.10-5.47Q45.18-7.52 46.25-9.26Q47.32-11.00 47.32-11.14Q47.32-11.29 46.92-11.72Q46.52-12.15 46.52-12.35Q46.52-12.56 47.33-13.43Q48.14-14.30 49.31-15.15Q50.47-16.00 51.08-16.00Q51.70-16.00 52.19-15.45Q52.68-14.90 52.68-14.45Q52.68-14.00 48.03-6.00L48.03-6.00Q47.97-5.88 47.71-5.48Q47.44-5.08 47.29-4.81Q47.15-4.55 46.95-4.18L46.95-4.18Q46.56-3.40 46.56-2.87L46.56-2.87Q46.56-2.21 47.46-2.21Q48.36-2.21 49.33-2.82Q50.29-3.44 51.00-4.18L51.00-4.18Q52.83-6.15 53.09-6.15L53.09-6.15Q53.59-6.15 53.59-4.39Z M86.52-27.40L86.52-27.40Q87.13-28.75 87.38-28.75L87.38-28.75L87.48-28.75Q87.77-28.75 88.67-28.13Q89.57-27.50 89.57-26.95L89.57-26.95Q89.57-26.19 84.57-15.16Q79.57-4.12 78.84-2.78Q78.11-1.45 77.83-1.00Q77.56-0.55 77.09 0L77.09 0Q76.25 1.04 75 1.04L75 1.04Q74.49 1.04 74.10 1.16Q73.71 1.29 73.63 1.29L73.63 1.29Q73.01 1.29 73.01 1.00L73.01 1.00Q73.01 0.94 73.17 0.52Q73.34 0.10 77.64-8.96L77.64-8.96Q73.05-9.14 69.57-9.24L69.57-9.24Q66.23-5.04 63.52-0.45L63.52-0.45Q63.18 0.20 62.89 0.46Q62.60 0.72 62.09 0.72Q61.58 0.72 61.00 0.21Q60.41-0.31 60.41-1.00L60.41-1.00Q60.41-2.95 65.45-9.36L65.45-9.36Q63.09-9.36 62.45-9.24Q61.82-9.12 61.64-9.12L61.64-9.12Q61.11-9.12 61.11-10.01Q61.11-10.90 62.16-11.57Q63.20-12.25 64.96-12.25L64.96-12.25Q65.10-12.25 65.45-12.27L65.45-12.27Q66.66-12.32 67.93-12.36L67.93-12.36Q72.19-17.36 76.84-21.64Q81.48-25.92 84.88-27.64L84.88-27.64Q85.43-27.91 85.75-27.90Q86.07-27.89 86.52-27.40ZM85.16-24.65L85.16-24.65Q78.03-19.24 72.13-12.36L72.13-12.36Q75.59-12.29 79.12-12.07L79.12-12.07Q82.68-19.55 85.16-24.65Z M91.15-11.88L90.33-10.64Q94.94-15.88 98.18-15.88L98.18-15.88Q98.98-15.88 99.50-15.40Q100.02-14.92 100.02-14.16Q100.02-13.40 98.94-11.61Q97.85-9.82 96.93-8.59L96.93-8.59Q96.45-7.97 95.83-7.97Q95.21-7.97 94.87-8.42Q94.53-8.87 94.53-9.47L94.53-9.47Q94.53-10.82 95.98-12.52L95.98-12.52L95.94-12.56Q95.29-12.50 92.74-10.02Q90.20-7.54 88.41-5.58Q86.62-3.61 84.53-0.80L84.53-0.80Q83.93 0.04 83.51 0.04Q83.09 0.04 82.39-0.22Q81.70-0.49 81.55-0.61Q81.41-0.72 81.41-1.00Q81.41-1.27 81.56-1.63Q81.72-1.99 82.14-2.66Q82.56-3.32 83.41-4.80Q84.26-6.29 86.05-9.30Q87.85-12.30 88.20-12.93L88.20-12.93Q88.95-14.22 89.41-14.80L89.41-14.80Q90.29-15.92 92.38-15.92L92.38-15.92Q92.85-15.92 92.85-15.33L92.85-15.33Q92.85-14.41 91.15-11.88L91.15-11.88Z M110.43-25.04L111.35-25.16L112.15-24.96Q112.32-24.96 112.46-24.79Q112.60-24.61 112.60-24.45Q112.60-24.30 112.19-23.61Q111.78-22.93 111.22-22.06Q110.66-21.19 110.63-21.11L110.63-21.11Q112.15-21.23 112.78-21.23Q113.42-21.23 113.65-21.14Q113.89-21.05 114.19-20.65Q114.49-20.25 114.75-20.05Q115-19.84 115-19.43Q115-19.02 114.50-18.74Q114.00-18.46 113.44-18.40L113.44-18.40Q108.91-17.95 108.44-17.93L108.44-17.93Q106.86-15.51 104.01-10.38Q101.17-5.25 101.00-3.96L101.00-3.96Q100.92-3.38 100.92-3.01L100.92-3.01Q100.92-2.25 101.72-2.25Q102.52-2.25 103.50-2.86Q104.47-3.48 105.29-4.20L105.29-4.20Q107.48-6.15 107.64-6.15L107.64-6.15Q108.14-6.15 108.14-4.39L108.14-4.39Q108.14-3.44 107.27-2.68L107.27-2.68Q105.29-0.98 103.95-0.12Q102.60 0.74 101.25 0.74L101.25 0.74Q100.96 0.74 100.70 0.68L100.70 0.68Q99.14 0.39 98.41-0.46Q97.68-1.31 97.69-2.75Q97.70-4.20 98.54-6.26Q99.39-8.32 100.68-10.64L100.68-10.64Q102.79-14.43 104.90-17.75L104.90-17.75L104.16-17.66Q101.89-17.40 101.52-17.40L101.52-17.40L101.35-17.40Q100.78-17.40 100.25-17.63Q99.73-17.85 99.73-18.18Q99.73-18.52 100.01-18.83Q100.29-19.14 100.35-19.32L100.35-19.32Q100.49-19.75 101.38-20.27Q102.27-20.80 102.71-20.83Q103.16-20.86 103.58-20.88Q104.00-20.90 104.52-20.92Q105.04-20.94 105.31-20.96L105.31-20.96L107.07-21.04Q108.71-23.50 109.33-24.20Q109.94-24.90 110.04-24.97Q110.14-25.04 110.43-25.04L110.43-25.04Z M146.89-24.28L146.89-24.28Q146.89-23.28 145.63-21.88Q144.36-20.47 142.49-19.20Q140.63-17.93 138.79-17.19L138.79-17.19Q139.20-17.32 139.63-17.32L139.63-17.32Q141.07-17.32 141.54-16.80L141.54-16.80Q141.66-16.68 141.66-16.52Q141.66-16.37 141.13-15.76L141.13-15.76Q135.64-9.41 131.05-3.16L131.05-3.16Q132.93-4.63 134.38-5.96L134.38-5.96Q135.18-6.68 136.33-6.68L136.33-6.68Q137.17-6.68 137.36-6.46Q137.56-6.25 137.56-6.10Q137.56-5.96 137.30-5.76L137.30-5.76Q134.04-2.91 126.66 2.56L126.66 2.56Q125.39 3.98 120.25 9.36L120.25 9.36Q119.34 10.29 118.22 10.29L118.22 10.29Q116.05 10.29 116.05 9.08L116.05 9.08Q116.05 8.55 116.89 7.40L116.89 7.40Q118.11 5.63 122.81 2.03L122.81 2.03Q123.85 0.88 126.39-1.88L126.39-1.88Q131.19-7.11 132.19-8.59L132.19-8.59Q129.53-6.07 128.16-5.04Q126.80-4.00 125.63-3.24Q124.47-2.48 123.50-2.01L123.50-2.01Q118.77 0.25 116.76-1.99L116.76-1.99Q115.74-3.11 115.74-5.26Q115.74-7.42 116.93-10.02Q118.13-12.62 120.12-15.15Q122.11-17.68 124.84-20.08Q127.58-22.48 130.53-24.30Q133.48-26.11 136.74-27.22Q140-28.32 142.89-28.32L142.89-28.32Q143.89-28.32 144.77-27.99Q145.64-27.66 146.02-27.29L146.02-27.29Q146.89-26.41 146.89-24.28ZM135.61-20.20L135.61-20.20L135.51-19.80Q135.51-19.47 135.96-19.47L135.96-19.47Q137.15-19.47 139.22-20.63Q141.29-21.78 142.56-22.99Q143.83-24.20 143.83-25L143.83-25Q143.83-25.68 142.62-25.68L142.62-25.68Q140.47-25.68 137.78-24.63Q135.10-23.57 132.54-21.89Q129.98-20.21 127.50-18.04Q125.02-15.86 123.17-13.68Q121.33-11.50 120.20-9.41Q119.06-7.32 119.06-5.84L119.06-5.84Q119.06-5.25 119.40-4.80Q119.75-4.36 120.41-4.36L120.41-4.36Q122.46-4.36 127.02-7.50Q131.58-10.64 137.50-16.07L137.50-16.07Q137.58-16.15 137.77-16.37L137.77-16.37Q138.20-16.89 138.65-17.13L138.65-17.13Q137.05-16.48 136.04-16.48Q135.02-16.48 134.36-16.93Q133.69-17.38 133.69-18.15Q133.69-18.93 134.38-19.61Q135.06-20.29 135.33-20.29Q135.61-20.29 135.61-20.20Z M155-14.84L155-14.84Q156.48-14.84 156.48-13.83L156.48-13.83Q156.48-13.28 156.23-13.03Q155.98-12.77 155.15-11.34Q154.32-9.90 153.31-7.67Q152.30-5.43 152.01-3.85L152.01-3.85Q151.95-3.65 151.95-3.30L151.95-3.30Q151.95-2.23 152.54-2.23Q153.13-2.23 153.93-2.78Q154.73-3.34 155.35-3.97Q155.98-4.61 156.57-5.27Q157.17-5.94 157.29-6.04Q157.40-6.13 157.64-6.13L157.64-6.13Q158.01-6.13 158.09-5.57Q158.16-5 158.16-4.39Q158.16-3.79 158.05-3.55L158.05-3.55Q157.48-2.44 155.56-0.88Q153.63 0.68 152.06 0.68Q150.49 0.68 149.75-0.27Q149.00-1.23 149.00-2.39Q149.00-3.55 149.39-4.43L149.39-4.43Q147.77-2.32 145.67-0.86Q143.57 0.61 142.25 0.61Q140.92 0.61 140.08-0.20L140.08-0.20Q139.00-1.19 139.00-2.96Q139.00-4.73 139.79-6.51Q140.59-8.30 141.88-9.78Q143.16-11.25 144.71-12.46L144.71-12.46Q147.95-15 150.68-15L150.68-15Q151.74-15 152.40-14.65Q153.07-14.30 153.24-13.77L153.24-13.77Q153.71-14.47 154.03-14.66Q154.36-14.84 155-14.84ZM152.40-12.68L152.40-12.68Q149.06-12.68 145.49-8.96L145.49-8.96Q144.22-7.64 143.15-5.78Q142.09-3.93 142.09-3.24Q142.09-2.56 142.48-2.56L142.48-2.56Q143.03-2.56 145.53-4.72Q148.03-6.88 148.85-7.89L148.85-7.89Q149.75-9.02 152.40-12.68Z M172.58-29.32Q173.52-29.32 174.23-28.76Q174.94-28.20 174.94-27.11Q174.94-26.02 173.73-23.68Q172.52-21.35 170.82-18.92Q169.12-16.48 166.97-13.75L166.97-13.75Q163.57-9.41 160.45-5.96L160.45-5.96Q160.43-5.72 160.28-5.09Q160.14-4.45 160.14-3.81Q160.14-3.16 160.73-2.65Q161.33-2.13 162.21-2.13Q163.09-2.13 164.09-2.75Q165.10-3.38 165.84-4.14L165.84-4.14Q167.79-6.15 168.26-6.15Q168.73-6.15 168.73-4.73L168.73-4.73L168.73-4.34Q168.73-3.57 168.46-3.22L168.46-3.22Q166.82-1.21 164.77-0.22Q162.71 0.76 160.88 0.76Q159.04 0.76 158.09-0.36Q157.13-1.48 157.13-3.44L157.13-3.44Q157.13-7.25 159.17-12.39Q161.21-17.54 163.77-21.15L163.77-21.15Q169.53-29.32 172.58-29.32L172.58-29.32ZM171.70-26.07L171.70-26.07Q171.70-26.37 171.50-26.37L171.50-26.37Q170.82-26.37 167.91-22.46Q165-18.55 163.70-16.23Q162.40-13.91 161.25-10.39L161.25-10.39Q163.55-13.13 167.63-18.92Q171.70-24.71 171.70-26.07Z M182.89-29.32Q183.83-29.32 184.54-28.76Q185.25-28.20 185.25-27.11Q185.25-26.02 184.04-23.68Q182.83-21.35 181.13-18.92Q179.43-16.48 177.29-13.75L177.29-13.75Q173.89-9.41 170.76-5.96L170.76-5.96Q170.74-5.72 170.60-5.09Q170.45-4.45 170.45-3.81Q170.45-3.16 171.04-2.65Q171.64-2.13 172.52-2.13Q173.40-2.13 174.40-2.75Q175.41-3.38 176.15-4.14L176.15-4.14Q178.11-6.15 178.57-6.15Q179.04-6.15 179.04-4.73L179.04-4.73L179.04-4.34Q179.04-3.57 178.77-3.22L178.77-3.22Q177.13-1.21 175.08-0.22Q173.03 0.76 171.19 0.76Q169.36 0.76 168.40-0.36Q167.44-1.48 167.44-3.44L167.44-3.44Q167.44-7.25 169.48-12.39Q171.52-17.54 174.08-21.15L174.08-21.15Q179.84-29.32 182.89-29.32L182.89-29.32ZM182.01-26.07L182.01-26.07Q182.01-26.37 181.82-26.37L181.82-26.37Q181.13-26.37 178.22-22.46Q175.31-18.55 174.01-16.23Q172.71-13.91 171.56-10.39L171.56-10.39Q173.87-13.13 177.94-18.92Q182.01-24.71 182.01-26.07Z M190.45-14.61L190.45-14.61Q190.45-13.32 189.40-12.34Q188.36-11.37 187.03-11.37L187.03-11.37Q186.60-11.37 186.46-11.57Q186.33-11.78 186.33-12.11Q186.33-12.44 186.41-12.75L186.41-12.75Q185.70-12.52 184.84-12.03Q183.98-11.54 182.73-10.59Q181.48-9.63 181.48-9.16L181.48-9.16Q181.48-9.00 181.94-9.00Q182.40-9.00 183.36-9.33Q184.32-9.65 184.70-9.65Q185.08-9.65 185.20-9.61L185.20-9.61Q185.45-9.47 185.74-9.01Q186.04-8.55 186.04-8.29Q186.04-8.03 185.53-7.60Q185.02-7.17 184.38-6.94Q183.73-6.72 183.52-6.60L183.52-6.60Q179.39-4.30 179.39-3.44L179.39-3.44Q179.39-1.91 181.99-1.91L181.99-1.91Q183.65-1.91 185.33-2.97L185.33-2.97Q186.76-3.87 187.90-4.79Q189.04-5.72 189.35-5.94Q189.65-6.15 189.80-6.15L189.80-6.15Q190.31-6.15 190.31-5.02Q190.31-3.89 190.18-3.53Q190.04-3.16 189.39-2.64L189.39-2.64Q185.21 0.76 181.48 0.76L181.48 0.76Q179.49 0.76 178.30 0.21L178.30 0.21Q176.11-0.78 176.11-2.83L176.11-2.83Q176.11-5.53 179.84-6.91L179.84-6.91Q179.10-7.25 178.89-7.76Q178.67-8.28 178.67-9.42Q178.67-10.57 179.74-11.85Q180.80-13.13 182.34-13.95L182.34-13.95Q185.78-15.80 188.48-15.80L188.48-15.80Q189.12-15.80 189.79-15.49Q190.45-15.18 190.45-14.61Z M196.91-11.88L196.09-10.64Q200.70-15.88 203.95-15.88L203.95-15.88Q204.75-15.88 205.26-15.40Q205.78-14.92 205.78-14.16Q205.78-13.40 204.70-11.61Q203.61-9.82 202.70-8.59L202.70-8.59Q202.21-7.97 201.59-7.97Q200.98-7.97 200.63-8.42Q200.29-8.87 200.29-9.47L200.29-9.47Q200.29-10.82 201.74-12.52L201.74-12.52L201.70-12.56Q201.05-12.50 198.51-10.02Q195.96-7.54 194.17-5.58Q192.38-3.61 190.29-0.80L190.29-0.80Q189.69 0.04 189.27 0.04Q188.85 0.04 188.15-0.22Q187.46-0.49 187.31-0.61Q187.17-0.72 187.17-1.00Q187.17-1.27 187.32-1.63Q187.48-1.99 187.90-2.66Q188.32-3.32 189.17-4.80Q190.02-6.29 191.82-9.30Q193.61-12.30 193.96-12.93L193.96-12.93Q194.71-14.22 195.18-14.80L195.18-14.80Q196.05-15.92 198.14-15.92L198.14-15.92Q198.61-15.92 198.61-15.33L198.61-15.33Q198.61-14.41 196.91-11.88L196.91-11.88Z M209.59 6.48L209.59 6.48Q209.49 6.58 208.99 7.47Q208.50 8.36 207.93 9.27Q207.36 10.18 206.53 11.00Q205.70 11.82 205.15 11.88Q204.59 11.95 204.43 11.95L204.43 11.95Q202.64 11.95 202.64 10.14L202.64 10.14Q202.64 8.01 204.84 5.16L204.84 5.16Q205.68 4.08 206.95 2.84Q208.22 1.60 208.34 1.44Q208.46 1.27 211.27-4.04L211.27-4.04Q209.39-1.99 207.79-0.71Q206.19 0.57 204.71 0.72L204.71 0.72L204.57 0.72Q203.81 0.72 203.07 0.22Q202.32-0.27 202.32-1.52L202.32-1.52Q202.32-3.38 203.32-5.12L203.32-5.12Q203.67-5.72 204.54-7.17Q205.41-8.61 206.15-9.96L206.15-9.96Q206.86-11.04 207.60-12.46Q208.34-13.89 208.73-14.50Q209.12-15.12 209.47-15.12Q209.82-15.12 210.38-14.68Q210.94-14.24 210.94-13.63Q210.94-13.03 208.38-8.38Q205.82-3.73 205.82-3.09L205.82-3.09Q205.82-2.93 205.98-2.93L205.98-2.93Q206.50-2.93 208.31-4.42Q210.12-5.92 212.30-8.26L212.30-8.26Q214.75-10.86 216.13-13.01L216.13-13.01Q216.31-13.28 216.42-13.43Q216.52-13.57 216.69-13.82Q216.86-14.06 216.96-14.20Q217.07-14.34 217.22-14.52Q217.36-14.71 217.48-14.80Q217.60-14.90 217.73-15L217.73-15Q217.95-15.20 218.21-15.20Q218.48-15.20 219.01-15.08Q219.55-14.96 219.66-14.82Q219.77-14.69 219.88-14.57L219.88-14.57Q220.08-14.36 220.08-14.17Q220.08-13.98 219.92-13.68Q219.77-13.38 218.11-10.59L218.11-10.59Q213.22-2.34 211.39 1.45L211.39 1.45Q214.36-1.05 219.75-5.96L219.75-5.96Q219.96-6.13 220.18-6.13L220.18-6.13Q220.78-6.13 220.78-4.28L220.78-4.28Q220.78-3.73 220.59-3.55L220.59-3.55Q214.75 0.94 209.59 6.48Z"/></g>
</svg>
</g><g opacity="1" transform="rotate(0 113.9187 36.0492)">
<svg width="145.5659" height="137.009" x="113.9187" y="36.0492" version="1.1" preserveAspectRatio="none" viewBox="0.9586193561553955 0.8855299949645996 3.2157094478607178 3.026674747467041">
  <g transform="matrix(1 0 0 1 0 0)" class="icon1"><title>icon</title><path d="M2.772,3.842a.56414.56414,0,0,0,.01965-.05839.54016.54016,0,0,0,.16679.07008.65167.65167,0,0,0,.60114-.228,1.071,1.071,0,0,0,.18536-.263.90644.90644,0,0,0,.11524-.03349c.16031-.05864.33127-.18361.31277-.37534a.4025.4025,0,0,0-.04435-.14524.54039.54039,0,0,0-.03778-.06146.76594.76594,0,0,0-.06434-.07982,1.01592,1.01592,0,0,0-.18714-.16353,1.21874,1.21874,0,0,0-.55619-.80288.68944.68944,0,0,0-.67793-.04247.58478.58478,0,0,0-.19388.179,1.38065,1.38065,0,0,0-.14941-.12661L2.24737,1.7001a1.46019,1.46019,0,0,0,.1827.03427.06732.06732,0,0,0,.06448-.08446.56353.56353,0,0,0-.144-.22732,1.88264,1.88264,0,0,0-.25088-.21312A5.85407,5.85407,0,0,0,1.42632.88553c.06965.05948.40972.29341.50309.3597a2.69659,2.69659,0,0,1,.25624.20128,1.13856,1.13856,0,0,1,.10266.10459l.01034.01248.00124.00148.00087.00117L2.3102,1.579a3.34315,3.34315,0,0,1-.42665-.142,2.15278,2.15278,0,0,0-.55838-.152.06776.06776,0,0,0-.0578.10155l.02.02978a.21992.21992,0,0,0-.058.0606.29985.29985,0,0,0-.02886.20188.90143.90143,0,0,0,.09482.277,1.4353,1.4353,0,0,0,.127.20486.42451.42451,0,0,0-.41458-.165.06731.06731,0,0,0-.047.08161.52743.52743,0,0,0,.25252.26767,1.94958,1.94958,0,0,0,.28549.12725q.03572.05387.06823.10969c.04046.06916.07725.1404.11084.21311a.88768.88768,0,0,0-.12467.43329,1.07308,1.07308,0,0,0,.00014.2438.29856.29856,0,0,0,.07735.19146.16336.16336,0,0,0,.20234-.002.27519.27519,0,0,0,.1169-.14674.69085.69085,0,0,0-.00849-.36852.36123.36123,0,0,0,.02341.05191.34124.34124,0,0,0,.24877.1714l.03118.0037c.01265.053.02755.10546.045.15691a.554.554,0,0,0,.27619.36806.22635.22635,0,0,0,.09592.01324.29793.29793,0,0,0,.05567-.00935C2.74932,3.8935,2.76106,3.86929,2.772,3.842ZM3.88811,2.72429c.01885.01975.03691.04041.05445.06127l.00861.01073.00914.01265c.00835.01224.01684.02424.02451.037l.01679.03093.00351.00722.00412.00978a.29931.29931,0,0,1,.01485.0536c-.0011-.00544.00126.01521.0014.02007a.20723.20723,0,0,1-.00075.02348l-.00245.01209-.00314.012L4.01732,3.021l-.00271.00689-.00517.01091-.0124.02153L3.99262,3.067l-.00108.0014-.02016.02257L3.952,3.10915l-.006.00509-.003.00235a.4903.4903,0,0,1-.05251.03353c-.01527.0085-.031.01609-.04692.02325l-.0229.00909L3.81622,3.184a1.26318,1.26318,0,0,0,.04552-.2147,1.367,1.367,0,0,0,.00662-.265ZM2.70242,1.773l.01724-.00808.00084-.00043.00438-.0017c.01174-.00457.02372-.00849.03581-.01214s.02428-.00655.03656-.00929l.01853-.00357.01036-.00167.00213-.00027a.55552.55552,0,0,1,.07653-.003l.03876.00243.0123.0014.02133.00346a.86532.86532,0,0,1,.54671.38632,1.16433,1.16433,0,0,1,.08334.14857l.01462.03229L3.6272,2.32l.00762.01937c.00851.02182.01626.0439.02348.06619a1.60878,1.60878,0,0,0-.57892-.12268,1.56579,1.56579,0,0,0-.66977.11566l-.00068-.01014a.78254.78254,0,0,1,.0342-.27518c.012.00044.02411.0005.03616,0,.03909-.00165.08065-.04222.06423-.08416a.46036.46036,0,0,0-.03406-.06865l.01934-.03152a.39468.39468,0,0,1,.05174-.06515c.0094-.01013.01934-.01966.02952-.02905l.01527-.01324.00255-.00217.00288-.00216A.47882.47882,0,0,1,2.70242,1.773ZM1.5806,1.50047A1.10037,1.10037,0,0,1,1.69,1.53173c.01831.0062.03651.0129.05459.01986l.00924.00364.00936.00381.0324.01379c.03932.01748.07782.03666.11576.05687a2.00726,2.00726,0,0,1,.22134.13707l.02084.0152.007.00524.01579.01209c.01789.0138.03544.02815.05272.04273a1.12294,1.12294,0,0,1,.08886.08352l.02666.02945-.00339.00746a1.08715,1.08715,0,0,1-.1239-.03869L2.19914,1.9169,2.196,1.91563l-.005-.002-.03679-.01565c-.0272-.01193-.05405-.02472-.08072-.038-.05316-.02647-.10495-.05566-.15587-.08618a2.1298,2.1298,0,0,1-.38224-.2822C1.55052,1.49406,1.56561,1.49714,1.5806,1.50047Zm-.39887.666c-.01069-.00882-.02082-.01822-.03066-.02794L1.13933,2.1263l.01565.0054.00594.00254.018.0087a.45175.45175,0,0,1,.03939.02284l.01829.01229.00652.00466.00073.00058c.01364.01043.02683.02148.03974.03288.01464.01283.02877.02634.04252.04015A.78394.78394,0,0,1,1.18173,2.16648Zm.40752.19872-.01055-.015.01616.01717Zm.15535-.01554a1.942,1.942,0,0,1-.22948-.25711A1.45917,1.45917,0,0,1,1.425,1.95347c-.01273-.02213-.02456-.04475-.03588-.06757-.0113-.023-.02292-.04929-.02919-.0649a.81327.81327,0,0,1-.04185-.13535l-.005-.028,0-.00027L1.31278,1.6548,1.31159,1.642a.32453.32453,0,0,1-.0004-.05067l.00042-.004.0008-.00548.00428-.01909.00445-.01332.00594-.01148.00645-.00986.00622-.00682.00517-.0051.0127-.009.002-.00112c.03027.03334.0625.065.09538.09533A2.41861,2.41861,0,0,0,1.73455,1.82a2.25492,2.25492,0,0,0,.30966.17746,1.38122,1.38122,0,0,0,.25116.093.99625.99625,0,0,0-.03581.26884.84445.84445,0,0,0,.00826.11335.06519.06519,0,0,0-.0473.03314.84955.84955,0,0,0-.07566.06175l-.024-.00869c-.07445-.0269-.15108-.05275-.22667-.07914Q1.81687,2.41791,1.74461,2.34966Zm.002.27989q-.01993-.039-.04126-.07748l.0501.01863.11024.03945.01359.01043a.49859.49859,0,0,0-.10317.06823Zm.10071.16671.0203-.018.0054-.00443.00837-.00619a.39647.39647,0,0,1,.04156-.02613l.021-.01059.00463-.00208.0076-.00283a.326.326,0,0,1,.04248-.01225l.00774-.00153.01088.00742a.73993.73993,0,0,0-.07183.147.43006.43006,0,0,0-.0222.20688,2.04447,2.04447,0,0,0-.0915-.262Zm-.01768.47211.00187.01237L1.8341,3.304q.00245.02479.00334.04974c.00056.01435.00049.02872,0,.0431l-.00117.02035-.00091.00994-.00009.00138-.00667.034-.0048.0167-.00264.00782a.18957.18957,0,0,1-.01333.02516l-.0018.00268-.00971.01073-.013.0115-.00505.00408-.00774.00558-.02122.0133-.00982.00514-.00021.00006-.014.004-.00442.00007L1.7196,3.569,1.71754,3.5678l-.00267-.00257L1.712,3.56229,1.704,3.549l-.00421-.0084a.31938.31938,0,0,1-.01226-.04127l-.00482-.02352-.002-.01236-.00017-.001-.00044-.00384a1.12056,1.12056,0,0,1,.00306-.24646l.00269-.02331.00381-.02723c.00316-.02161.00688-.04323.011-.06472.00725-.03786.01609-.07544.027-.11243l.01279-.03933c.0124.0332.02407.06668.03476.10048A1.505,1.505,0,0,1,1.82961,3.26838Zm.35059-.02783-.00954-.004-.014-.007-.02358-.01442-.008-.0062L2.11293,3.198l-.0117-.01191-.0127-.01449A.32158.32158,0,0,1,2.05408,3.112a.26957.26957,0,0,1-.01593-.06937.3348.3348,0,0,1,.02306-.146.5135.5135,0,0,1,.02914-.06381c.00865-.01645.01827-.03243.02839-.048q.03077.01868.06208.03644c.00017.047.00208.094.00508.14083a2.68447,2.68447,0,0,0,.0338.28981A.34821.34821,0,0,1,2.18019,3.24054Zm.18911.01273-.01165.00151-.01539.00155L2.3377,3.23186c-.00891-.04959-.01511-.09282-.02-.13437-.00828-.07024-.01345-.14105-.01523-.21185l.057.0272c.02729.10863.04809.21963.07756.32767Q2.40341,3.24819,2.3693,3.25327Zm.2164-.0552-.02482.00811c-.0101-.03641-.01934-.073-.02816-.10972l.01041.01827C2.55838,3.142,2.57247,3.16984,2.5857,3.19807Zm.09987-.0836q.02249.01616.04563.03143l-.02662.00966Zm.37.03125c-.02135-.008-.01614-.006-.03712-.0148a1.32213,1.32213,0,0,1-.12277-.05925c.02484.00249.04975.00436.07464.00525a.07069.07069,0,0,0,.03406-.13157,4.22916,4.22916,0,0,0-.50162-.241l-.00341-.00584a.7155.7155,0,0,1-.06973-.17638L2.44714,2.514l.03164-.01359a1.44128,1.44128,0,0,1,.67281-.08617,1.3349,1.3349,0,0,1,.55073.16545l.0029.01594.00568.03665.00183.014.00232.021c.00316.03043.00508.061.00622.09154a1.3081,1.3081,0,0,1-.00585.176l-.00171.01581-.0018.01393-.00662.04154c-.00519.02989-.01179.05952-.0192.0889-.00692.027-.015.0537-.02388.08011l-.01408.03932-.00449.01134-.00047.00109-.0022.00035-.01132.00139L3.59551,3.232c-.0247.00212-.04944.00308-.07426.00338s-.04966-.00063-.07445-.0023L3.403,3.22935l-.02189-.00241-.00339-.00037-.01392-.00192a1.47594,1.47594,0,0,1-.18115-.03774c-.02865-.00781-.057-.0167-.08514-.02619Zm-.426.15992.00568.01651a1.17613,1.17613,0,0,1,.03859.143l.00246.01279-.0265-.04209a.56815.56815,0,0,1-.05487-.11836Zm.02835.484A.17965.17965,0,0,1,2.637,3.79l-.00819-.00056-.00335-.00062L2.60586,3.7839l-.00751-.00248-.00021-.00015a.20781.20781,0,0,1-.03284-.01844L2.5516,3.752l-.01654-.01551L2.519,3.71926,2.51123,3.71l-.00084-.001-.00189-.00249a.6231.6231,0,0,1-.058-.09582l-.01247-.02628-.006-.01358-.001-.00224-.00056-.00146c-.00865-.02082-.01644-.04189-.02386-.06308-.015-.04325-.02767-.0873-.0389-.13164l-.00019-.00086A.85842.85842,0,0,0,2.472,3.3532c.01046.02927.02189.05822.03481.08666a.85964.85964,0,0,0,.17793.2588l-.0018.01107a.47351.47351,0,0,1-.0141.05908l-.00695.02051Zm.45739-.06839-.0109.0013c-.01268.00129-.0254.00176-.03813.00193-.01076.00016-.02154-.00027-.0323-.0009l-.016-.00139-.00077-.00007-.00262-.00039a.4419.4419,0,0,1-.06762-.01586l-.02339-.00817-.02535-.01155a.50683.50683,0,0,1-.06229-.03638L2.8268,3.64342l-.009-.00681-.00437-.00346.00016-.0037a1.02006,1.02006,0,0,0-.06626-.367l.05181-.019c.02077-.00751.04163-.01469.06271-.02133a1.50545,1.50545,0,0,0,.36217.13075,1.33977,1.33977,0,0,0,.337.0329l-.00942.01464a.92848.92848,0,0,1-.10432.12761c-.021.02216-.04322.04312-.06624.06314l-.01668.014-.00342.00278-.00332.00256c-.01272.00978-.02585.01893-.0392.02786a.68335.68335,0,0,1-.06718.03935l-.0269.01278-.011.00443L3.191,3.70283a.49006.49006,0,0,1-.06654.01693Z"></path></g>
</svg>
</g></svg></svg>